<svg xmlns="http://www.w3.org/2000/svg" xmlns:xlink="http://www.w3.org/1999/xlink" width="66" height="66" viewBox="0 0 66 66">
    <defs>
        <circle id="a" cx="30" cy="30" r="30"/>
        <path id="c" d="M0 .045h26.42v29.717H0z"/>
    </defs>
    <g fill="none" fill-rule="evenodd" transform="translate(3 3)">
        <mask id="b" fill="#fff">
            <use xlink:href="#a"/>
        </mask>
        <use fill="#222" xlink:href="#a"/>
        <g mask="url(#b)">
            <path d="M8 16.935V63h46V16.935z"/>
            <g transform="translate(11.608 16)">
                <path d="M.902 25.323h37.882v18.68H.902z"/>
                <path fill="#B2102F" d="M37.882 40.355v3.613H0v-6.432c0-5.428 2.961-10.164 7.191-11.501L10.465 25l8.124.981a.848.848 0 0 0 .705 0L27.417 25l3.272 1.034c4.231 1.337 7.193 6.075 7.193 11.506v2.815z"/>
                <g transform="translate(5)">
                    <mask id="d" fill="#fff">
                        <use xlink:href="#c"/>
                    </mask>
                    <path fill="#EEE" d="M0 9.007v11.66c0 1.12.587 2.158 1.545 2.732l9.88 5.914c.98.587 2.199.599 3.19.03L24.7 23.556a3.183 3.183 0 0 0 1.596-2.728L26.42 9.18a3.184 3.184 0 0 0-1.56-2.775L14.848.485a3.152 3.152 0 0 0-3.175-.021L1.596 6.245A3.183 3.183 0 0 0 0 9.007" mask="url(#d)"/>
                </g>
                <path fill="#79092B" d="M16.692 31.769l-3.095 1.755a1.07 1.07 0 0 1-1.597-.93V28.07a1.07 1.07 0 0 1 1.597-.93l3.715 2.107a1.597 1.597 0 0 1 1.212 0l3.715-2.107a1.07 1.07 0 0 1 1.597.93v4.525a1.07 1.07 0 0 1-1.597.93l-3.095-1.755a1.6 1.6 0 0 1-2.452 0z"/>
                <ellipse cx="17.902" cy="35.903" fill="#D8D8D8" rx="1" ry="1"/>
                <ellipse cx="17.902" cy="39.903" fill="#D8D8D8" rx="1" ry="1"/>
                <path fill="#D2470B" d="M31.667 26.35l.022.007c.623.197 1.219.467 1.782.803v17.13h-1.804V26.35zM6.216 26.35l-.022.007a8.436 8.436 0 0 0-1.782.803v17.128h1.804V26.35z"/>
            </g>
        </g>
        <path fill="#53011B" d="M31.86 31.946l.03-.051 6.226-6.333s.403-.562-.385-.562h-2.488c-1.065 0-1.645.374-2.26.863l-6.006 5.919v-6.343a.442.442 0 0 0-.425-.439H23.44c-.23 0-.44.207-.44.439V38.12c0 .232.21.427.44.427h3.112c.23 0 .425-.149.425-.38V32.17l6.159 5.896c.52.414 1.415.481 2.036.481h2.612c.787 0 .497-.31.497-.31l-6.421-6.292z" mask="url(#b)"/>
        <path fill="#D53D3B" d="M36.76 25.583c-2.13 1.825-3.66-1.633-11.304-3.661-7.645-2.028-13.82-1.56-12.099-5.837 1.63-4.054 7.644-5.483 13.735-3.403l.351-.872a.84.84 0 0 1 1.096-.467c.43.175.639.668.465 1.1l-.345.856c6.176 2.797 10.23 10.46 8.1 12.284z" mask="url(#b)" transform="scale(-1 1) rotate(6 0 -462.146)"/>
    </g>
</svg>
