<?xml version="1.0" encoding="UTF-8" standalone="no"?>
<svg width="183px" height="42px" viewBox="0 0 183 42" version="1.1" xmlns="http://www.w3.org/2000/svg" xmlns:xlink="http://www.w3.org/1999/xlink">
    <!-- Generator: sketchtool 3.7.2 (28276) - http://www.bohemiancoding.com/sketch -->
    <title>F7602EDD-787C-4B8C-9451-C24AAC6A7E5F</title>
    <desc>Created with sketchtool.</desc>
    <defs></defs>
    <g id="Page-1" stroke="none" stroke-width="1" fill="none" fill-rule="evenodd">
        <g id="Signup_login" transform="translate(-89.000000, -157.000000)" fill="#FFFFFF">
            <g id="Group" transform="translate(50.000000, 157.000000)">
                <g id="Group-2" transform="translate(39.000000, 0.000000)">
                    <path d="M171.623278,0.964525631 C170.952249,0.964525631 170.174999,1.53442357 169.898955,2.20799714 L159.566375,27.5296565 L149.233794,2.20290876 C148.959022,1.52933519 148.181773,0.964525631 147.510744,0.964525631 L137.826295,0.964525631 C137.155902,0.964525631 136.827065,1.53442357 137.101202,2.20799714 L153.459689,38.9804071 C153.733826,39.6539807 154.512347,40.3994276 155.183376,40.3994276 L155.413625,40.3994276 L163.71976,40.3994276 L163.949373,40.3994276 C164.621039,40.3994276 165.400196,39.6641575 165.674332,38.9912199 L182.032184,2.30022392 C182.30632,1.62665035 181.978756,0.964525631 181.307727,0.964525631 L171.623278,0.964525631 Z M1.44323075,0.964525631 C0.772201374,0.964525631 0.129158054,1.53951194 0.129158054,2.21308551 L0.129158054,39.4733434 C0.129158054,40.146917 0.772201374,40.3994276 1.44323075,40.3994276 L9.97961493,40.3994276 C10.6512804,40.3994276 10.9419537,40.146917 10.9419537,39.4733434 L10.9419537,2.21308551 C10.9419537,1.53951194 10.6512804,0.964525631 9.97961493,0.964525631 L1.44323075,0.964525631 Z M34.916466,0.964525631 C31.8100134,0.964525631 30.1842777,1.7672167 28.3874455,3.18941736 L10.9419537,20.1063542 L10.9419537,20.3779462 L10.9419537,21.2385176 L28.8352225,38.6859175 C30.3515581,39.888682 32.8989255,40.3994276 34.7091147,40.3994276 L42.3257752,40.3994276 C44.619996,40.3994276 43.7740538,39.1801258 43.7740538,39.1801258 L25.050744,20.4669928 L25.1385184,20.3779462 L43.2932024,2.2849588 C43.2932024,2.2849588 44.4673448,0.964525631 42.1712158,0.964525631 L34.916466,0.964525631 Z M48.4152873,0.964525631 C47.744894,0.964525631 47.1966217,1.53951194 47.1966217,2.21308551 L47.1966217,39.4733434 C47.1966217,40.146917 47.744894,40.3994276 48.4152873,40.3994276 L56.9529436,40.3994276 C57.6233369,40.3994276 58.0094173,40.146917 58.0094173,39.4733434 L58.0094173,2.21308551 C58.0094173,1.53951194 57.6233369,0.964525631 56.9529436,0.964525631 L48.4152873,0.964525631 Z M81.8897947,0.964525631 C78.782706,0.964525631 77.2040378,1.7672167 75.4084777,3.18941736 L58.0094173,20.1063542 L58.0094173,20.3779462 L58.0094173,21.2385176 L75.8556186,38.6859175 C77.3713181,39.888682 79.8709821,40.3994276 81.6818073,40.3994276 L89.2984678,40.3994276 C91.5933247,40.3994276 90.7467464,39.1801258 90.7467464,39.1801258 L72.0228006,20.4669928 L72.1118471,20.3779462 L90.265259,2.2849588 C90.265259,2.2849588 91.4406735,0.964525631 89.1439085,0.964525631 L81.8897947,0.964525631 Z M95.0069879,0.964525631 C94.2577248,0.964525631 93.6280384,1.41357468 93.6280384,2.16347386 L93.6280384,8.30132553 C93.6280384,9.05122471 94.2577248,9.86918091 95.0069879,9.86918091 L108.257115,9.86918091 L108.257115,39.4733434 C108.257115,40.146917 108.50899,41.0354744 109.179383,41.0354744 L118.863831,41.0354744 C119.534861,41.0354744 120.342004,40.146917 120.342004,39.4733434 L120.342004,9.86918091 L133.197146,9.86918091 C133.946409,9.86918091 134.335034,9.05122471 134.335034,8.30132553 L134.335034,2.16347386 C134.335034,1.41357468 133.946409,0.964525631 133.197146,0.964525631 L95.0069879,0.964525631 Z" id="Combined-Shape"></path>
                </g>
            </g>
        </g>
    </g>
</svg>